<svg width="24" height="24" viewBox="0 0 24 24" fill="none" xmlns="http://www.w3.org/2000/svg">
<path fill-rule="evenodd" clip-rule="evenodd" d="M3.11876 3.11876C3.56879 2.66875 4.2984 2.66875 4.74843 3.11876L12 10.3704L19.2516 3.11876C19.7016 2.66875 20.4313 2.66875 20.8813 3.11876C21.3312 3.56879 21.3312 4.2984 20.8813 4.74843L13.6297 12L20.8813 19.2516C21.3312 19.7016 21.3312 20.4313 20.8813 20.8813C20.4313 21.3312 19.7016 21.3312 19.2516 20.8813L12 13.6297L4.74843 20.8813C4.2984 21.3312 3.56879 21.3312 3.11876 20.8813C2.66875 20.4313 2.66875 19.7016 3.11876 19.2516L10.3704 12L3.11876 4.74843C2.66875 4.2984 2.66875 3.56879 3.11876 3.11876Z" fill="black"/>
</svg>
